Coordinates
version=1
nRows=26
nColumns=34
inDegrees=no

Units are S.I. units (second, meters, Newtons, ...)
If the header above contains a line with 'inDegrees', this indicates whether rotational values are in degrees (yes) or radians (no).

endheader
time	pelvis_tilt	pelvis_list	pelvis_rotation	pelvis_tx	pelvis_ty	pelvis_tz	hip_flexion_r	hip_adduction_r	hip_rotation_r	knee_angle_r	ankle_angle_r	subtalar_angle_r	mtp_angle_r	hip_flexion_l	hip_adduction_l	hip_rotation_l	knee_angle_l	ankle_angle_l	subtalar_angle_l	mtp_angle_l	lumbar_extension	lumbar_bending	lumbar_rotation	arm_flex_r	arm_add_r	arm_rot_r	elbow_flex_r	pro_sup_r	arm_flex_l	arm_add_l	arm_rot_l	elbow_flex_l	pro_sup_l
0.9	-0.00313107	0.0449946	-0.0265822	0.96668	0.968147	-0.259685	0.463144	-0.109423	0.0438773	0.902526	0.12928	0.0540256	0	0.0404821	0.0603186	0.139201	0.205016	0.28566	0.260478	0	-0.0955523	-0.0616109	-0.114701	-0.231435	-0.117611	-0.166337	0.660802	2.09	-0.0544122	-0.183067	-0.180366	0.603053	2.09
0.91	-0.00381075	0.0397337	-0.0246664	0.977769	0.968671	-0.259746	0.473913	-0.102076	0.0404088	0.852252	0.141206	0.0650066	0	0.0238226	0.0548492	0.146905	0.197103	0.287868	0.253975	0	-0.0958133	-0.0538051	-0.120744	-0.23345	-0.119021	-0.166887	0.661515	2.09	-0.0445031	-0.184264	-0.174574	0.615214	2.09
0.92	-0.0049394	0.0353829	-0.0224817	0.988888	0.968825	-0.259726	0.483438	-0.0959861	0.0372641	0.799497	0.153381	0.0777078	0	0.00827057	0.0503234	0.154688	0.190469	0.291045	0.247217	0	-0.0955526	-0.0472162	-0.126344	-0.235719	-0.120011	-0.168169	0.661687	2.09	-0.0347528	-0.186055	-0.168221	0.628369	2.09
0.93	-0.00632848	0.0320242	-0.0199613	1.00005	0.96861	-0.259641	0.491642	-0.0913494	0.0343116	0.744943	0.166446	0.0934208	0	-0.00652017	0.0468061	0.162387	0.184862	0.295274	0.240557	0	-0.095029	-0.0419448	-0.131567	-0.238232	-0.120511	-0.170465	0.661314	2.09	-0.025115	-0.188432	-0.161238	0.642538	2.09
0.94	-0.00776069	0.0297105	-0.0170476	1.01126	0.968033	-0.259511	0.498444	-0.0882907	0.0313618	0.689287	0.180451	0.113282	0	-0.0209428	0.0443367	0.170011	0.179999	0.300529	0.23411	0	-0.0945375	-0.0380425	-0.136461	-0.24098	-0.12049	-0.173945	0.660408	2.09	-0.0154999	-0.191346	-0.153635	0.657666	2.09
0.95	-0.0090268	0.0284478	-0.0137101	1.02253	0.967111	-0.25935	0.503802	-0.0868228	0.02823	0.633233	0.194848	0.13799	0	-0.0353773	0.0428988	0.177667	0.175613	0.306707	0.227869	0	-0.0943596	-0.0355035	-0.141048	-0.24394	-0.119943	-0.178671	0.659014	2.09	-0.00580637	-0.194723	-0.145449	0.673625	2.09
0.96	-0.00996093	0.0281844	-0.00995016	1.03387	0.965869	-0.25916	0.507719	-0.0868163	0.0248421	0.577425	0.208664	0.16755	0	-0.0501344	0.0424071	0.185502	0.171493	0.313652	0.221752	0	-0.0947202	-0.0342593	-0.145336	-0.247078	-0.118881	-0.184591	0.657219	2.09	0.00403541	-0.198486	-0.136716	0.69026	2.09
0.97	-0.0104687	0.028805	-0.00579506	1.04526	0.964334	-0.258936	0.51025	-0.08802	0.0212661	0.522402	0.22082	0.201213	0	-0.0654233	0.0427006	0.193668	0.167477	0.321181	0.215608	0	-0.0957543	-0.0341769	-0.149342	-0.250332	-0.117339	-0.191522	0.655139	2.09	0.0140296	-0.202565	-0.127479	0.707436	2.09
0.98	-0.0104188	0.0302273	-0.00121893	1.05673	0.962548	-0.25868	0.511431	-0.0905895	0.0164626	0.468756	0.231208	0.239873	0	-0.0816557	0.0437446	0.203563	0.163111	0.328529	0.207437	0	-0.0976294	-0.0351329	-0.153105	-0.253676	-0.115322	-0.199452	0.652991	2.09	0.0241914	-0.206906	-0.117635	0.725001	2.09
0.99	-0.00987034	0.0324696	0.00362355	1.06828	0.960544	-0.258389	0.511453	-0.0942837	0.0108264	0.416918	0.239385	0.28169	0	-0.0999773	0.0460547	0.222909	0.156335	0.331782	0.185076	0	-0.100252	-0.037124	-0.156652	-0.256989	-0.11288	-0.208227	0.650778	2.09	0.0343545	-0.211326	-0.107734	0.742866	2.09
1	-0.00944897	0.0344026	0.00850795	1.07986	0.958318	-0.257923	0.510198	-0.0958073	0.0124528	0.365593	0.24215	0.311689	0	-0.116116	0.0466988	0.228463	0.15331	0.341939	0.183943	0	-0.102975	-0.0391315	-0.1602	-0.25969	-0.11057	-0.215044	0.6476	2.09	0.044066	-0.216014	-0.097949	0.76116	2.09
1.01	-0.0086994	0.036543	0.013582	1.09151	0.955934	-0.257382	0.507886	-0.0978077	0.0143664	0.316504	0.244082	0.340892	0	-0.132931	0.0473077	0.23513	0.149938	0.351697	0.181352	0	-0.106251	-0.0414871	-0.163618	-0.262119	-0.10798	-0.222344	0.644241	2.09	0.0536456	-0.220639	-0.0883899	0.779394	2.09
1.02	-0.00782011	0.0387017	0.0186247	1.10323	0.953417	-0.256741	0.504769	-0.0995913	0.0185698	0.270031	0.245342	0.364491	0	-0.150152	0.0476044	0.242053	0.1463	0.361129	0.178199	0	-0.109785	-0.0439993	-0.166944	-0.264055	-0.105428	-0.228978	0.640285	2.09	0.0628187	-0.225129	-0.0794211	0.797426	2.09
1.03	-0.00682588	0.0407866	0.0234827	1.11503	0.950797	-0.255994	0.501176	-0.101014	0.0250788	0.227168	0.246704	0.380587	0	-0.167788	0.0474366	0.248577	0.142333	0.370142	0.175202	0	-0.113489	-0.0465344	-0.170125	-0.265448	-0.103039	-0.234731	0.635651	2.09	0.0714258	-0.229352	-0.0713696	0.815077	2.09
1.04	-0.00569859	0.0427474	0.0280394	1.12693	0.948109	-0.255138	0.49747	-0.102054	0.0328038	0.189124	0.248787	0.38882	0	-0.185896	0.0467276	0.25426	0.137939	0.378493	0.172778	0	-0.117315	-0.0489917	-0.173091	-0.266311	-0.100887	-0.239576	0.63036	2.09	0.0793098	-0.233173	-0.064485	0.832185	2.09
1.05	-0.00440749	0.0445296	0.0322212	1.13896	0.94539	-0.254172	0.493937	-0.102653	0.0400877	0.157059	0.25188	0.389946	0	-0.204508	0.0454324	0.25887	0.133101	0.385853	0.171084	0	-0.12124	-0.0512637	-0.175786	-0.26669	-0.098998	-0.243617	0.624492	2.09	0.0862989	-0.23646	-0.0589663	0.848642	2.09
1.06	-0.00291892	0.0460577	0.0359913	1.15114	0.942678	-0.253093	0.490791	-0.10269	0.0451772	0.132021	0.256079	0.38569	0	-0.223578	0.0435231	0.262354	0.127959	0.391876	0.170084	0	-0.12524	-0.0532221	-0.178163	-0.266664	-0.0973572	-0.247078	0.618165	2.09	0.0922075	-0.239089	-0.0549758	0.864396	2.09
1.07	-0.00121418	0.0472301	0.0393348	1.16351	0.940011	-0.251898	0.488203	-0.102033	0.0466084	0.114867	0.26143	0.378536	0	-0.242937	0.0409872	0.264768	0.122877	0.396272	0.169675	0	-0.129263	-0.0547117	-0.180183	-0.266335	-0.095928	-0.250267	0.611516	2.09	0.0968474	-0.240941	-0.0526533	0.879435	2.09
1.08	0.000679454	0.0479275	0.0422485	1.1761	0.937421	-0.250585	0.486256	-0.100609	0.0435584	0.106005	0.26782	0.371152	0	-0.262245	0.0378334	0.266151	0.118458	0.39887	0.169844	0	-0.133194	-0.0555571	-0.181807	-0.265817	-0.0946776	-0.253521	0.604694	2.09	0.100045	-0.241908	-0.0521107	0.893753	2.09
1.09	0.00254315	0.0480788	0.0447291	1.18892	0.934925	-0.249159	0.485121	-0.0984789	0.036077	0.105302	0.274692	0.36564	0	-0.280803	0.0341706	0.266334	0.115596	0.399715	0.170907	0	-0.136685	-0.0556407	-0.182927	-0.265295	-0.0935843	-0.257158	0.597891	2.09	0.101709	-0.241919	-0.0532383	0.907205	2.09
1.1	0.00449821	0.0476041	0.0468801	1.20197	0.932563	-0.247645	0.485281	-0.0963474	0.0175538	0.113569	0.283046	0.373836	0	-0.298184	0.0299852	0.263994	0.115284	0.399337	0.175123	0	-0.139863	-0.0547546	-0.183653	-0.264814	-0.0924672	-0.26247	0.591525	2.09	0.10173	-0.240832	-0.0563541	0.919973	2.09
1.11	0.0059269	0.0464181	0.0486295	1.21528	0.930335	-0.246023	0.484967	-0.0929398	0.00677036	0.125541	0.285729	0.369723	0	-0.313514	0.0254757	0.260991	0.117944	0.396847	0.179391	0	-0.141835	-0.052917	-0.184083	-0.264339	-0.092013	-0.266274	0.584849	2.09	0.0997906	-0.238911	-0.0609453	0.93177	2.09
1.12	0.00678923	0.0445867	0.050057	1.22881	0.928263	-0.244325	0.48532	-0.0890869	-0.00509382	0.142177	0.28383	0.367548	0	-0.326065	0.0207136	0.255004	0.124675	0.393209	0.187415	0	-0.142614	-0.0500563	-0.183972	-0.264124	-0.0916481	-0.271606	0.578778	2.09	0.096214	-0.236052	-0.0667361	0.942351	2.09
1.13	0.00668364	0.0422073	0.0511322	1.24253	0.926357	-0.242556	0.486734	-0.0847019	-0.0161902	0.162159	0.275828	0.365587	0	-0.334915	0.0158307	0.245121	0.136203	0.388643	0.20052	0	-0.141738	-0.0463151	-0.183357	-0.264105	-0.091612	-0.277365	0.573044	2.09	0.090957	-0.232447	-0.0733462	0.951527	2.09
1.14	0.00529502	0.0392598	0.0518245	1.25639	0.92463	-0.240709	0.489759	-0.0796252	-0.0262799	0.184689	0.261764	0.364304	0	-0.338745	0.010483	0.227004	0.154008	0.384752	0.225219	0	-0.138901	-0.0417221	-0.182269	-0.264174	-0.0919754	-0.283146	0.567498	2.09	0.0840107	-0.228193	-0.0807015	0.959203	2.09
1.15	0.00229484	0.0354689	0.0520543	1.27036	0.923083	-0.238745	0.494894	-0.0733199	-0.0346371	0.209099	0.24294	0.3634	0	-0.335469	0.00326898	0.191367	0.180761	0.384766	0.275275	0	-0.133793	-0.0360852	-0.180495	-0.264351	-0.092761	-0.288587	0.562129	2.09	0.0755537	-0.223403	-0.0884325	0.965136	2.09
